<svg xmlns="http://www.w3.org/2000/svg" width="24" height="24" viewBox="0 0 24 24" fill="none" stroke="currentColor" stroke-width="2" stroke-linecap="round" stroke-linejoin="round" class="lucide lucide-gem-icon lucide-gem"><metadata><rdf:RDF xmlns:rdf="http://www.w3.org/1999/02/22-rdf-syntax-ns#" xmlns:dc="http://purl.org/dc/elements/1.1/"><rdf:Description><dc:creator>RealFaviconGenerator</dc:creator><dc:source>https://realfavicongenerator.net</dc:source></rdf:Description></rdf:RDF></metadata><path d="M10.5 3 8 9l4 13 4-13-2.5-6"></path><path d="M17 3a2 2 0 0 1 1.6.8l3 4a2 2 0 0 1 .013 2.382l-7.99 10.986a2 2 0 0 1-3.247 0l-7.99-10.986A2 2 0 0 1 2.4 7.8l2.998-3.997A2 2 0 0 1 7 3z"></path><path d="M2 9h20"></path><style>@media (prefers-color-scheme: light) { :root { filter: none; } }
@media (prefers-color-scheme: dark) { :root { filter: contrast(0.3846153846153846) brightness(4.5); } }
</style></svg>